<svg xmlns="http://www.w3.org/2000/svg">
<symbol id="ti-adjustments-horizontal" viewBox="0 0 24 24"><path stroke="none" d="M0 0h24v24H0z" fill="none"/>
  <path d="M14 6m-2 0a2 2 0 1 0 4 0a2 2 0 1 0 -4 0" />
  <path d="M4 6l8 0" />
  <path d="M16 6l4 0" />
  <path d="M8 12m-2 0a2 2 0 1 0 4 0a2 2 0 1 0 -4 0" />
  <path d="M4 12l2 0" />
  <path d="M10 12l10 0" />
  <path d="M17 18m-2 0a2 2 0 1 0 4 0a2 2 0 1 0 -4 0" />
  <path d="M4 18l11 0" />
  <path d="M19 18l1 0" /></symbol>
<symbol id="ti-alert-triangle" viewBox="0 0 24 24"><path stroke="none" d="M0 0h24v24H0z" fill="none"/>
  <path d="M12 9v4" />
  <path d="M10.363 3.591l-8.106 13.534a1.914 1.914 0 0 0 1.636 2.871h16.214a1.914 1.914 0 0 0 1.636 -2.87l-8.106 -13.536a1.914 1.914 0 0 0 -3.274 0z" />
  <path d="M12 16h.01" /></symbol>
<symbol id="ti-anchor" viewBox="0 0 24 24"><path stroke="none" d="M0 0h24v24H0z" fill="none"/>
  <path d="M12 9v12m-8 -8a8 8 0 0 0 16 0m1 0h-2m-14 0h-2" />
  <path d="M12 6m-3 0a3 3 0 1 0 6 0a3 3 0 1 0 -6 0" /></symbol>
<symbol id="ti-arrow-back-up" viewBox="0 0 24 24"><path stroke="none" d="M0 0h24v24H0z" fill="none"/>
  <path d="M9 14l-4 -4l4 -4" />
  <path d="M5 10h11a4 4 0 1 1 0 8h-1" /></symbol>
<symbol id="ti-arrow-left" viewBox="0 0 24 24"><path stroke="none" d="M0 0h24v24H0z" fill="none"/>
  <path d="M5 12l14 0" />
  <path d="M5 12l6 6" />
  <path d="M5 12l6 -6" /></symbol>
<symbol id="ti-arrow-right" viewBox="0 0 24 24"><path stroke="none" d="M0 0h24v24H0z" fill="none"/>
  <path d="M5 12l14 0" />
  <path d="M13 18l6 -6" />
  <path d="M13 6l6 6" /></symbol>
<symbol id="ti-arrow-up" viewBox="0 0 24 24"><path stroke="none" d="M0 0h24v24H0z" fill="none"/>
  <path d="M12 5l0 14" />
  <path d="M18 11l-6 -6" />
  <path d="M6 11l6 -6" /></symbol>
<symbol id="ti-atom" viewBox="0 0 24 24"><path stroke="none" d="M0 0h24v24H0z" fill="none"/>
  <path d="M12 12v.01" />
  <path d="M19.071 4.929c-1.562 -1.562 -6 .337 -9.9 4.243c-3.905 3.905 -5.804 8.337 -4.242 9.9c1.562 1.561 6 -.338 9.9 -4.244c3.905 -3.905 5.804 -8.337 4.242 -9.9" />
  <path d="M4.929 4.929c-1.562 1.562 .337 6 4.243 9.9c3.905 3.905 8.337 5.804 9.9 4.242c1.561 -1.562 -.338 -6 -4.244 -9.9c-3.905 -3.905 -8.337 -5.804 -9.9 -4.242" /></symbol>
<symbol id="ti-binoculars" viewBox="0 0 24 24"><path stroke="none" d="M0 0h24v24H0z" fill="none"/>
  <path d="M7 16m-3 0a3 3 0 1 0 6 0a3 3 0 1 0 -6 0" />
  <path d="M17 16m-3 0a3 3 0 1 0 6 0a3 3 0 1 0 -6 0" />
  <path d="M16.346 9.17l-.729 -1.261c-.16 -.248 -1.056 -.203 -1.117 .091l-.177 1.38" />
  <path d="M19.761 14.813l-2.84 -5.133c-.189 -.31 -.592 -.68 -1.421 -.68c-.828 0 -1.5 .448 -1.5 1v6" />
  <path d="M7.654 9.17l.729 -1.261c.16 -.249 1.056 -.203 1.117 .091l.177 1.38" />
  <path d="M4.239 14.813l2.84 -5.133c.189 -.31 .592 -.68 1.421 -.68c.828 0 1.5 .448 1.5 1v6" />
  <rect width="4" height="2" x="10" y="12" /></symbol>
<symbol id="ti-bolt" viewBox="0 0 24 24"><path stroke="none" d="M0 0h24v24H0z" fill="none"/>
  <path d="M13 3l0 7l6 0l-8 11l0 -7l-6 0l8 -11" /></symbol>
<symbol id="ti-building-factory-2" viewBox="0 0 24 24"><path stroke="none" d="M0 0h24v24H0z" fill="none"/>
  <path d="M3 21h18" />
  <path d="M5 21v-12l5 4v-4l5 4h4" />
  <path d="M19 21v-8l-1.436 -9.574a.5 .5 0 0 0 -.495 -.426h-1.145a.5 .5 0 0 0 -.494 .418l-1.43 8.582" />
  <path d="M9 17h1" />
  <path d="M14 17h1" /></symbol>
<symbol id="ti-building-warehouse" viewBox="0 0 24 24"><path stroke="none" d="M0 0h24v24H0z" fill="none"/>
  <path d="M3 21v-13l9 -4l9 4v13" />
  <path d="M13 13h4v8h-10v-6h6" />
  <path d="M13 21v-9a1 1 0 0 0 -1 -1h-2a1 1 0 0 0 -1 1v3" /></symbol>
<symbol id="ti-bulb" viewBox="0 0 24 24"><path stroke="none" d="M0 0h24v24H0z" fill="none"/>
  <path d="M3 12h1m8 -9v1m8 8h1m-15.4 -6.4l.7 .7m12.1 -.7l-.7 .7" />
  <path d="M9 16a5 5 0 1 1 6 0a3.5 3.5 0 0 0 -1 3a2 2 0 0 1 -4 0a3.5 3.5 0 0 0 -1 -3" />
  <path d="M9.7 17l4.6 0" /></symbol>
<symbol id="ti-database-check" viewBox="0 0 24 24"><path stroke="none" d="M0 0h24v24H0z" fill="none"/>
  <path d="M12 6m-8 0a8 3 0 1 0 16 0a8 3 0 1 0 -16 0" />
  <path d="M4 6v6a8 3 0 0 0 16 0v-6" />
  <path d="M4 12v6a8 3 0 0 0 16 0v-6" /></symbol>
<symbol id="ti-droplet" viewBox="0 0 24 24"><path stroke="none" d="M0 0h24v24H0z" fill="none"/>
  <path d="M7.502 19.423c2.602 2.105 6.395 2.105 8.996 0c2.602 -2.105 3.262 -5.708 1.566 -8.546l-4.89 -7.26c-.42 -.625 -1.287 -.803 -1.936 -.397a1.376 1.376 0 0 0 -.41 .397l-4.893 7.26c-1.695 2.838 -1.035 6.441 1.567 8.546z" /></symbol>
<symbol id="ti-external-link" viewBox="0 0 24 24"><path stroke="none" d="M0 0h24v24H0z" fill="none"/>
  <path d="M12 6h-6a2 2 0 0 0 -2 2v10a2 2 0 0 0 2 2h10a2 2 0 0 0 2 -2v-6" />
  <path d="M11 13l9 -9" />
  <path d="M15 4h5v5" /></symbol>
<symbol id="ti-fish" viewBox="0 0 24 24"><path stroke="none" d="M0 0h24v24H0z" fill="none"/>
  <path d="M16.69 7.44a6.973 6.973 0 0 0 -1.69 4.56c0 1.747 .64 3.345 1.699 4.571" />
  <path d="M2 9.504c7.715 8.647 14.75 10.265 20 2.498c-5.25 -7.761 -12.285 -6.142 -20 2.504" />
  <path d="M18 11v.01" />
  <path d="M11.5 10.5c-.667 1 -.667 2 0 3" /></symbol>
<symbol id="ti-flame" viewBox="0 0 24 24"><path stroke="none" d="M0 0h24v24H0z" fill="none"/>
  <path d="M12 10.941c2.333 -3.308 .167 -7.823 -1 -8.941c0 3.395 -2.235 5.299 -3.667 6.706c-1.43 1.408 -2.333 3.621 -2.333 5.588c0 3.704 3.134 6.706 7 6.706s7 -3.002 7 -6.706c0 -1.712 -1.232 -4.403 -2.333 -5.588c-2.084 3.353 -3.257 3.353 -4.667 2.235" /></symbol>
<symbol id="ti-help-circle" viewBox="0 0 24 24"><path stroke="none" d="M0 0h24v24H0z" fill="none"/>
  <path d="M3 12a9 9 0 1 0 18 0a9 9 0 0 0 -18 0" />
  <path d="M12 16v.01" />
  <path d="M12 13a2 2 0 0 0 .914 -3.782a1.98 1.98 0 0 0 -2.414 .483" /></symbol>
<symbol id="ti-home" viewBox="0 0 24 24"><path stroke="none" d="M0 0h24v24H0z" fill="none"/>
  <path d="M5 12l-2 0l9 -9l9 9l-2 0" />
  <path d="M5 12v7a2 2 0 0 0 2 2h10a2 2 0 0 0 2 -2v-7" />
  <path d="M9 21v-6a2 2 0 0 1 2 -2h2a2 2 0 0 1 2 2v6" /></symbol>
<symbol id="ti-info-circle" viewBox="0 0 24 24"><path stroke="none" d="M0 0h24v24H0z" fill="none"/>
  <path d="M3 12a9 9 0 1 0 18 0a9 9 0 0 0 -18 0" />
  <path d="M12 9h.01" />
  <path d="M11 12h1v4h1" /></symbol>
<symbol id="ti-map-2" viewBox="0 0 24 24"><path stroke="none" d="M0 0h24v24H0z" fill="none"/>
  <path d="M12 18.5l-3 -1.5l-6 3v-13l6 -3l6 3l6 -3v7.5" />
  <path d="M9 4v13" />
  <path d="M15 7v5.5" />
  <path d="M21.121 20.121a3 3 0 1 0 -4.242 0c.418 .419 1.125 1.045 2.121 1.879c1.051 -.89 1.759 -1.516 2.121 -1.879z" />
  <path d="M19 18v.01" /></symbol>
<symbol id="ti-map-pin" viewBox="0 0 24 24"><path stroke="none" d="M0 0h24v24H0z" fill="none"/>
  <path d="M9 11a3 3 0 1 0 6 0a3 3 0 0 0 -6 0" />
  <path d="M17.657 16.657l-4.243 4.243a2 2 0 0 1 -2.827 0l-4.244 -4.243a8 8 0 1 1 11.314 0z" /></symbol>
<symbol id="ti-map-pin-question" viewBox="0 0 24 24"><path stroke="none" d="M0 0h24v24H0z" fill="none"/>
  <path d="M9 11a3 3 0 1 0 6 0a3 3 0 0 0 -6 0" />
  <path d="M14.997 19.317l-1.583 1.583a2 2 0 0 1 -2.827 0l-4.244 -4.243a8 8 0 1 1 13.657 -5.584" />
  <path d="M19 22v.01" />
  <path d="M19 19a2.003 2.003 0 0 0 .914 -3.782a1.98 1.98 0 0 0 -2.414 .483" /></symbol>
<symbol id="ti-map-search" viewBox="0 0 24 24"><path stroke="none" d="M0 0h24v24H0z" fill="none"/>
  <path d="M11 18l-2 -1l-6 3v-13l6 -3l6 3l6 -3v7.5" />
  <path d="M9 4v13" />
  <path d="M15 7v5" />
  <path d="M18 18m-3 0a3 3 0 1 0 6 0a3 3 0 1 0 -6 0" />
  <path d="M20.2 20.2l1.8 1.8" /></symbol>
<symbol id="ti-message-chatbot" viewBox="0 0 24 24"><path stroke="none" d="M0 0h24v24H0z" fill="none"/>
  <path d="M18 4a3 3 0 0 1 3 3v8a3 3 0 0 1 -3 3h-5l-5 3v-3h-2a3 3 0 0 1 -3 -3v-8a3 3 0 0 1 3 -3h12z" />
  <path d="M9.5 9h.01" />
  <path d="M14.5 9h.01" />
  <path d="M9.5 13a3.5 3.5 0 0 0 5 0" /></symbol>
<symbol id="ti-minus" viewBox="0 0 24 24"><path stroke="none" d="M0 0h24v24H0z" fill="none"/>
  <path d="M5 12l14 0" /></symbol>
<symbol id="ti-plug-connected" viewBox="0 0 24 24"><path stroke="none" d="M0 0h24v24H0z" fill="none"/>
  <path d="M7 12l5 5l-1.5 1.5a3.536 3.536 0 1 1 -5 -5l1.5 -1.5z" />
  <path d="M17 12l-5 -5l1.5 -1.5a3.536 3.536 0 1 1 5 5l-1.5 1.5z" />
  <path d="M3 21l2.5 -2.5" />
  <path d="M18.5 5.5l2.5 -2.5" />
  <path d="M10 11l-2 2" />
  <path d="M13 14l-2 2" /></symbol>
<symbol id="ti-plus" viewBox="0 0 24 24"><path stroke="none" d="M0 0h24v24H0z" fill="none"/>
  <path d="M12 5l0 14" />
  <path d="M5 12l14 0" /></symbol>
<symbol id="ti-radar" viewBox="0 0 24 24"><path stroke="none" d="M0 0h24v24H0z" fill="none"/>
  <path d="M21 12h-8a1 1 0 1 0 -1 1v8a9 9 0 0 0 9 -9" />
  <path d="M16 9a5 5 0 1 0 -7 7" />
  <path d="M20.486 9a9 9 0 1 0 -11.482 11.495" /></symbol>
<symbol id="ti-route" viewBox="0 0 24 24"><path stroke="none" d="M0 0h24v24H0z" fill="none"/>
  <path d="M3 19a2 2 0 1 0 4 0a2 2 0 0 0 -4 0" />
  <path d="M19 7a2 2 0 1 0 0 -4a2 2 0 0 0 0 4z" />
  <path d="M11 19h5.5a3.5 3.5 0 0 0 0 -7h-8a3.5 3.5 0 0 1 0 -7h4.5" /></symbol>
<symbol id="ti-sailboat" viewBox="0 0 24 24"><path stroke="none" d="M0 0h24v24H0z" fill="none"/>
  <path d="M2 20a2.4 2.4 0 0 0 2 1a2.4 2.4 0 0 0 2 -1a2.4 2.4 0 0 1 2 -1a2.4 2.4 0 0 1 2 1a2.4 2.4 0 0 0 2 1a2.4 2.4 0 0 0 2 -1a2.4 2.4 0 0 1 2 -1a2.4 2.4 0 0 1 2 1a2.4 2.4 0 0 0 2 1a2.4 2.4 0 0 0 2 -1" />
  <path d="M4 18l-1 -3h18l-1 3" />
  <path d="M11 12h7l-7 -9v9" />
  <path d="M8 7l-2 5" /></symbol>
<symbol id="ti-shield-check" viewBox="0 0 24 24"><path stroke="none" d="M0 0h24v24H0z" fill="none"/>
  <path d="M11.46 20.846a12 12 0 0 1 -7.96 -14.846a12 12 0 0 0 8.5 -3a12 12 0 0 0 8.5 3a12 12 0 0 1 -.09 7.06" />
  <path d="M15 19l2 2l4 -4" /></symbol>
<symbol id="ti-ship" viewBox="0 0 24 24"><path stroke="none" d="M0 0h24v24H0z" fill="none"/>
  <path d="M2 20a2.4 2.4 0 0 0 2 1a2.4 2.4 0 0 0 2 -1a2.4 2.4 0 0 1 2 -1a2.4 2.4 0 0 1 2 1a2.4 2.4 0 0 0 2 1a2.4 2.4 0 0 0 2 -1a2.4 2.4 0 0 1 2 -1a2.4 2.4 0 0 1 2 1a2.4 2.4 0 0 0 2 1a2.4 2.4 0 0 0 2 -1" />
  <path d="M4 18l-1 -5h18l-2 4" />
  <path d="M5 13v-6h8l4 6" />
  <path d="M7 7v-4h-1" /></symbol>
<symbol id="ti-sun-high" viewBox="0 0 24 24"><path stroke="none" d="M0 0h24v24H0z" fill="none"/>
  <path d="M14.828 14.828a4 4 0 1 0 -5.656 -5.656a4 4 0 0 0 5.656 5.656z" />
  <path d="M6.343 17.657l-1.414 1.414" />
  <path d="M6.343 6.343l-1.414 -1.414" />
  <path d="M17.657 6.343l1.414 -1.414" />
  <path d="M17.657 17.657l1.414 1.414" />
  <path d="M4 12h-2" />
  <path d="M12 4v-2" />
  <path d="M20 12h2" />
  <path d="M12 20v2" /></symbol>
<symbol id="ti-volume-off" viewBox="0 0 24 24"><path stroke="none" d="M0 0h24v24H0z" fill="none"/>
  <path d="M15 8a5 5 0 0 1 1.912 4.934m-1.377 2.602a5 5 0 0 1 -.535 .464" />
  <path d="M17.7 5a9 9 0 0 1 2.362 11.086m-1.676 2.299a9 9 0 0 1 -.686 .615" />
  <path d="M9.069 5.054l.431 -.554a.8 .8 0 0 1 1.5 .5v2m0 4v8a.8 .8 0 0 1 -1.5 .5l-3.5 -4.5h-2a1 1 0 0 1 -1 -1v-4a1 1 0 0 1 1 -1h2l1.294 -1.664" />
  <path d="M3 3l18 18" /></symbol>
<symbol id="ti-wave-sine" viewBox="0 0 24 24"><path stroke="none" d="M0 0h24v24H0z" fill="none"/>
  <path d="M21 12h-2c-.894 0 -1.662 -.857 -1.761 -2c-.296 -3.45 -.749 -6 -2.749 -6s-2.5 3.582 -2.5 8s-.5 8 -2.5 8s-2.452 -2.547 -2.749 -6c-.1 -1.147 -.867 -2 -1.763 -2h-2" /></symbol>
<symbol id="ti-waves-electricity" viewBox="0 0 24 24"><path stroke="none" d="M0 0h24v24H0z" fill="none"/>
  <path d="M3 12c.576 -.643 1.512 -1.017 2.5 -1c.988 -.017 1.924 .357 2.5 1c.576 .643 1.512 1.017 2.5 1c.988 .017 1.924 -.357 2.5 -1" />
  <path d="M3 16c.576 -.643 1.512 -1.017 2.5 -1c.988 -.017 1.924 .357 2.5 1c.576 .643 1.512 1.017 2.5 1c.988 .017 1.924 -.357 2.5 -1" />
  <path d="M3 8c.576 -.643 1.512 -1.017 2.5 -1c.988 -.017 1.924 .357 2.5 1c.576 .643 1.512 1.017 2.5 1c.988 .017 1.924 -.357 2.5 -1" />
  <path d="M20 7l-3 5h4l-3 5" /></symbol>
<symbol id="ti-windmill" viewBox="0 0 24 24"><path stroke="none" d="M0 0h24v24H0z" fill="none"/>
  <path d="M12 12c2.76 0 5 -2.01 5 -4.5s-2.24 -4.5 -5 -4.5v9z" />
  <path d="M12 12c0 2.76 2.01 5 4.5 5s4.5 -2.24 4.5 -5h-9z" />
  <path d="M12 12c-2.76 0 -5 2.01 -5 4.5s2.24 4.5 5 4.5v-9z" />
  <path d="M12 12c0 -2.76 -2.01 -5 -4.5 -5s-4.5 2.24 -4.5 5h9z" /></symbol>
<symbol id="ti-windsock" viewBox="0 0 24 24"><path stroke="none" d="M0 0h24v24H0z" fill="none"/>
  <path d="M6 3v18" />
  <path d="M6 11l12 -1v-4l-12 -1" />
  <path d="M10 5.5v5" />
  <path d="M14 6v4" />
  <path d="M4 21h4" /></symbol>
<symbol id="ti-x" viewBox="0 0 24 24"><path stroke="none" d="M0 0h24v24H0z" fill="none"/>
  <path d="M18 6l-12 12" />
  <path d="M6 6l12 12" /></symbol>
</svg>
